<?xml version="1.0" standalone="no"?>
<!DOCTYPE svg PUBLIC "-//W3C//DTD SVG 20010904//EN"
 "http://www.w3.org/TR/2001/REC-SVG-20010904/DTD/svg10.dtd">
<svg version="1.0" xmlns="http://www.w3.org/2000/svg"
 width="488.000000pt" height="511.000000pt" viewBox="0 0 488.000000 511.000000"
 preserveAspectRatio="xMidYMid meet">
<metadata>
Created by potrace 1.16, written by Peter Selinger 2001-2019
</metadata>
<g transform="translate(0.000000,511.000000) scale(0.100000,-0.100000)"
fill="#000000" stroke="none">
<path d="M2460 4621 c0 -6 -8 -8 -64 -12 -14 -1 -27 -7 -30 -14 -3 -8 -13 -11
-25 -8 -12 3 -21 1 -21 -6 0 -12 -29 -15 -54 -5 -9 3 -14 10 -11 14 6 10 -15
8 -32 -3 -7 -5 -17 -5 -23 -2 -5 3 -10 3 -10 -2 0 -4 -25 -8 -55 -9 -52 0 -70
8 -42 19 9 4 9 6 0 6 -6 1 -19 -9 -27 -20 -9 -13 -21 -19 -30 -16 -9 4 -16 3
-16 -2 0 -13 -69 -19 -74 -6 -2 5 -5 -2 -5 -16 -1 -23 -6 -27 -41 -33 -23 -4
-38 -11 -35 -16 3 -6 18 -7 33 -4 27 6 27 6 5 -10 -12 -9 -31 -32 -43 -52 -13
-19 -33 -40 -46 -44 -13 -5 -24 -16 -24 -25 0 -8 -6 -15 -13 -15 -12 0 -38
-61 -41 -94 -2 -16 -35 -46 -51 -46 -8 0 -15 -8 -15 -19 0 -10 -7 -24 -15 -31
-8 -7 -15 -18 -15 -25 0 -8 -6 -16 -12 -18 -10 -4 -10 -6 -1 -6 10 -1 10 -7 1
-26 -6 -14 -15 -25 -19 -25 -4 0 -16 -18 -28 -40 -11 -22 -18 -40 -14 -40 4 0
-7 -15 -25 -33 -17 -18 -33 -41 -34 -52 -2 -11 -19 -42 -38 -69 -43 -59 -47
-104 -17 -154 26 -42 43 -92 51 -142 10 -65 76 -220 94 -220 5 0 14 -16 22
-35 8 -19 17 -35 21 -35 4 0 6 -8 5 -17 -4 -24 34 -113 48 -113 16 0 18 66 2
82 -19 19 -30 58 -17 58 6 0 11 -7 11 -15 0 -19 55 -75 75 -75 8 0 15 -4 15
-9 0 -6 -12 -9 -26 -8 -21 2 -27 -3 -29 -20 -2 -31 24 -37 57 -13 l29 21 -7
-25 c-4 -18 -1 -27 15 -35 21 -11 38 0 26 18 -3 5 -1 12 5 16 6 3 10 -4 10
-17 0 -22 39 -78 55 -78 4 0 36 -23 72 -51 36 -28 79 -53 97 -56 42 -7 96 20
96 47 0 11 5 19 11 18 17 -4 27 43 35 154 l7 97 -38 -10 c-50 -14 -60 -3 -41
50 7 23 11 40 8 38 -12 -6 -106 -48 -147 -65 -22 -9 -59 -35 -83 -56 -38 -35
-46 -38 -63 -28 -17 11 -19 9 -20 -10 -1 -16 -4 -13 -10 12 -14 58 -16 245 -1
262 6 8 9 18 5 21 -3 4 -1 7 5 7 7 0 12 10 13 23 0 12 3 16 6 10 2 -7 11 -13
18 -13 7 0 15 -7 19 -15 3 -8 13 -15 22 -15 14 0 15 -2 3 -17 -12 -15 -12 -16
4 -10 11 4 36 -3 65 -18 55 -29 65 -30 97 -9 13 9 41 17 63 18 21 1 43 5 49 9
6 4 9 -4 6 -21 -4 -23 -3 -25 7 -9 8 13 9 37 1 90 -30 209 -43 354 -39 433 4
76 8 89 27 106 39 31 59 24 65 -24 22 -175 32 -230 51 -283 13 -34 25 -94 29
-135 9 -101 26 -199 37 -205 4 -3 18 4 30 16 17 17 20 29 16 67 -3 26 -13 145
-22 266 -16 219 -12 295 16 368 12 29 43 42 69 28 14 -8 18 -33 23 -162 4 -90
13 -174 22 -203 8 -28 15 -62 15 -76 0 -14 9 -34 20 -44 11 -10 20 -30 21 -44
0 -24 1 -24 9 -5 4 11 11 72 15 135 9 140 37 279 61 296 24 17 49 16 64 -2 11
-13 11 -51 0 -205 -7 -104 -10 -195 -7 -202 2 -8 -1 -52 -9 -99 -7 -46 -14
-110 -14 -141 0 -48 4 -59 22 -72 31 -22 33 -21 47 27 7 23 21 60 31 83 10 22
24 71 30 110 15 90 39 173 56 202 17 27 59 29 73 4 17 -31 -27 -284 -72 -417
-25 -73 -44 -245 -28 -245 5 0 30 24 56 53 64 72 112 175 129 274 8 45 25 106
39 135 44 95 95 262 93 304 -11 151 -33 272 -57 299 -5 5 -9 16 -9 25 0 9 -20
46 -45 83 -25 37 -45 74 -45 82 0 8 -4 15 -9 15 -5 0 -12 17 -16 37 -6 31 -35
90 -35 71 0 -4 -24 9 -52 28 -29 19 -60 34 -69 34 -9 0 -28 10 -43 21 -26 21
-28 21 -42 3 -9 -11 -13 -13 -9 -6 4 7 -1 15 -12 18 -34 11 -83 38 -83 46 0 5
-5 8 -11 8 -6 0 -19 10 -28 22 -14 17 -29 22 -69 22 -29 1 -52 4 -52 7 0 4
-11 9 -25 11 -14 3 -25 2 -25 -1z"/>
<path d="M1640 2992 c0 -8 117 -82 129 -82 5 0 14 -7 21 -15 7 -9 28 -23 47
-32 19 -9 42 -28 51 -42 8 -14 25 -34 36 -44 12 -10 14 -15 7 -11 -9 5 -6 -5
7 -23 12 -17 22 -36 22 -43 0 -6 4 -9 9 -5 19 11 34 -34 45 -135 15 -124 19
-147 32 -167 9 -14 12 -33 8 -48 -4 -18 -2 -27 10 -31 9 -3 16 -12 16 -20 0
-17 21 -56 35 -66 6 -5 6 -8 -2 -8 -6 0 -34 18 -61 39 -42 33 -52 48 -62 90
-7 28 -16 49 -20 46 -11 -7 -23 31 -15 45 4 6 -1 7 -11 3 -19 -7 -17 -1 18 49
10 14 17 41 17 60 -1 22 -3 26 -6 11 -4 -22 -51 -43 -95 -43 -19 0 -58 -45
-58 -67 0 -8 -5 -11 -12 -7 -6 4 -8 3 -5 -4 10 -15 -3 -43 -16 -35 -6 3 -7 1
-3 -6 9 -14 -2 -51 -15 -51 -6 0 -8 4 -5 8 3 5 -21 0 -52 -11 -31 -11 -73 -20
-94 -20 -20 -1 -34 -5 -31 -9 2 -5 -21 -7 -51 -5 -31 2 -56 0 -56 -4 0 -6 -20
-14 -56 -24 -67 -18 -167 -52 -196 -67 -21 -11 -42 -16 -48 -13 -5 3 -7 0 -4
-8 3 -9 -3 -17 -17 -20 -28 -7 -39 1 -19 13 8 6 11 10 5 10 -16 0 -37 -16 -33
-26 1 -5 -6 -10 -17 -12 -17 -3 -18 -1 -5 8 10 8 11 10 2 8 -8 -2 -13 -8 -13
-13 0 -15 -41 -55 -56 -55 -8 0 -12 -4 -8 -9 3 -5 -3 -12 -12 -16 -23 -7 -79
-82 -87 -117 -3 -16 -10 -28 -14 -28 -5 0 -9 -51 -10 -112 -2 -84 1 -109 9
-98 8 11 9 0 5 -45 -3 -33 -6 -158 -7 -277 -1 -120 -4 -218 -8 -218 -10 0 -13
-62 -13 -230 0 -175 21 -259 94 -367 15 -23 28 -44 28 -48 0 -11 183 -279 231
-339 27 -34 49 -68 49 -77 0 -8 3 -19 7 -23 7 -7 8 -11 11 -73 l2 -33 1140 0
1140 0 0 248 c0 136 -4 274 -9 307 -6 33 -12 101 -15 150 l-6 90 34 -72 c56
-116 150 -243 182 -243 7 0 23 -15 35 -32 12 -18 35 -45 52 -61 26 -24 37 -27
96 -27 135 1 229 70 309 223 28 53 42 94 89 252 27 91 23 178 -11 242 -16 30
-33 50 -39 46 -5 -3 -7 -2 -4 4 11 17 -29 86 -78 136 -26 26 -51 45 -55 42 -5
-3 -6 3 -3 13 5 23 -42 76 -60 66 -6 -4 -9 -4 -6 0 4 4 -6 20 -22 36 -26 25
-29 35 -29 93 0 100 -28 160 -89 190 -38 18 -54 93 -39 183 11 67 10 73 -15
125 -36 76 -51 91 -94 98 -29 5 -37 11 -35 25 4 20 -26 58 -39 50 -5 -3 -9 1
-9 9 0 8 -8 14 -17 13 -13 -1 -17 5 -15 19 2 15 1 17 -6 6 -8 -11 -13 -10 -28
5 -11 11 -25 19 -31 20 -39 3 -44 5 -39 13 4 5 -2 7 -12 4 -10 -2 -43 4 -73
15 -53 18 -59 19 -160 3 -57 -9 -110 -20 -116 -24 -9 -6 -11 -3 -7 7 3 8 15
17 27 19 12 2 5 3 -16 1 -24 -3 -54 3 -85 17 -68 32 -112 40 -118 24 -7 -18
98 -158 211 -281 381 -414 553 -589 688 -698 54 -42 104 -88 112 -100 28 -42
65 -150 59 -169 -3 -11 -2 -17 3 -14 5 3 7 -7 5 -25 -3 -16 0 -33 5 -37 6 -3
24 -34 41 -69 34 -70 38 -67 -50 -40 -32 9 -41 9 -56 -5 -10 -10 -36 -17 -58
-18 -36 0 -95 -17 -66 -18 6 -1 12 -6 12 -12 0 -5 -5 -7 -11 -4 -6 4 -9 0 -7
-10 2 -10 -3 -20 -11 -23 -10 -3 -12 0 -7 13 4 12 2 16 -8 12 -8 -3 -17 1 -20
10 -4 9 -13 13 -22 9 -12 -5 -15 -2 -10 10 3 8 -1 22 -9 30 -8 8 -12 21 -9 29
8 19 -6 19 -34 -1 -12 -8 -22 -11 -22 -5 0 5 5 13 10 16 12 7 -6 28 -33 38 -9
3 -16 10 -15 14 2 4 -1 8 -6 8 -5 0 -13 11 -18 25 -7 20 -11 22 -18 10 -5 -8
-10 -10 -10 -4 0 6 -12 16 -26 23 -18 8 -24 17 -20 27 5 13 2 15 -13 11 -13
-3 -18 -1 -15 8 3 7 -8 19 -25 26 -17 8 -31 18 -32 24 -1 5 -2 19 -3 29 0 11
-6 21 -13 23 -8 3 -11 -8 -8 -37 3 -36 2 -40 -11 -29 -13 10 -17 10 -25 -2 -5
-8 -9 -9 -9 -4 0 6 7 20 15 32 14 20 13 22 -15 32 -17 5 -30 14 -30 20 0 5 -9
13 -20 16 -13 4 -20 15 -20 30 0 16 -10 30 -30 42 -17 9 -33 25 -36 35 -3 10
-10 18 -16 18 -6 0 -8 10 -4 24 7 29 -3 40 -22 23 -13 -10 -14 -8 -9 14 4 16
1 33 -9 47 -8 13 -11 22 -5 22 6 0 11 5 11 11 0 5 -4 8 -9 5 -5 -3 -14 1 -21
9 -9 10 -9 15 -1 15 6 0 11 10 11 23 0 18 -2 19 -10 7 -8 -13 -11 -11 -16 8
-4 12 -11 22 -16 22 -5 0 -7 9 -3 19 4 14 0 23 -15 31 -11 6 -18 15 -15 21 4
5 3 9 -2 9 -8 0 -31 59 -37 96 -4 30 -16 45 -28 38 -7 -5 -9 2 -4 22 4 19 3
24 -3 15 -6 -10 -12 -3 -21 25 -18 59 -34 94 -42 94 -5 0 -8 8 -8 18 0 9 -18
53 -41 97 -24 49 -42 100 -46 133 -5 41 -8 50 -19 41 -7 -6 -22 -8 -34 -4 -15
5 -20 2 -20 -14 0 -11 -7 -26 -15 -35 -8 -8 -15 -17 -15 -21 0 -4 7 -13 15
-21 12 -12 15 -12 15 -2 0 8 5 6 11 -5 6 -9 14 -15 20 -12 5 4 9 -7 9 -24 0
-37 -40 -118 -50 -101 -5 8 -9 7 -13 -4 -4 -9 -12 -14 -19 -11 -18 6 -52 -21
-43 -34 9 -16 31 -13 50 5 23 24 28 12 11 -27 -8 -19 -18 -52 -21 -73 -5 -29
-9 -36 -16 -25 -8 12 -10 12 -18 0 -5 -8 -18 -12 -30 -8 -12 3 -21 0 -21 -6 0
-9 -2 -9 -8 0 -4 6 -20 15 -35 18 -29 8 -35 20 -14 28 6 2 9 7 6 11 -11 11
-59 -5 -59 -20 0 -8 -6 -14 -13 -14 -8 0 -19 -11 -25 -25 -16 -36 -28 -31 -30
13 -2 28 3 43 18 57 11 10 20 22 20 26 0 5 11 25 25 45 14 20 25 45 25 55 0 9
13 28 29 41 16 14 34 34 40 46 6 12 16 22 22 22 14 0 34 22 35 38 1 6 2 19 3
27 0 8 8 15 16 15 8 0 15 5 15 12 0 6 3 8 7 5 3 -4 13 3 21 14 15 22 11 30
-23 43 -6 2 -6 10 1 23 10 16 9 19 -9 20 -12 1 -28 -3 -36 -10 -11 -9 -15 -9
-18 1 -3 6 -8 10 -13 7 -4 -2 -7 7 -7 20 0 14 3 25 8 25 5 0 9 7 9 15 0 8 7
15 15 15 8 0 16 8 17 18 5 62 4 78 -5 90 -5 7 -18 10 -30 6 -14 -4 -17 -3 -12
6 4 6 18 10 31 7 14 -2 27 0 30 5 12 19 57 30 66 16 5 -9 8 -4 8 14 0 15 4 38
10 52 5 15 6 26 0 26 -5 0 -11 9 -15 20 -4 12 -22 24 -47 32 -36 11 -42 10
-54 -6 -9 -13 -19 -16 -31 -11 -38 16 -117 1 -109 -21 3 -8 0 -14 -5 -14 -6 0
-9 9 -6 19 5 22 -13 33 -33 21 -17 -11 -33 -2 -24 12 15 24 -71 -1 -94 -27
-24 -29 -36 -31 -99 -20 -35 6 -44 4 -49 -9 -3 -9 -10 -14 -14 -11 -4 3 -10
-2 -14 -10 -9 -23 -22 -18 -36 14 -10 25 -17 29 -41 26 -21 -3 -32 1 -39 15
-6 12 -21 20 -35 20 -15 0 -26 7 -30 20 -3 11 -14 20 -24 20 -10 0 -24 7 -31
15 -7 8 -18 15 -24 15 -7 0 -18 16 -26 35 -8 19 -17 35 -21 35 -4 0 -10 10
-13 23 -8 30 -98 83 -136 79 -17 -2 -30 1 -30 6 0 5 -15 13 -32 19 -18 6 -57
20 -85 32 -29 11 -53 17 -53 13z m770 -1297 c8 -2 30 -8 48 -14 19 -6 32 -6
32 0 0 11 47 12 54 1 3 -5 -4 -25 -14 -45 -11 -21 -17 -37 -13 -37 5 0 4 -4
-2 -8 -13 -9 -35 -49 -35 -62 0 -6 -9 -20 -20 -32 -11 -12 -20 -29 -20 -37 0
-9 -7 -25 -15 -35 -19 -25 -19 -36 0 -36 8 0 15 9 15 21 0 11 4 17 10 14 5 -3
19 15 31 40 12 25 25 45 30 45 5 0 14 11 20 24 7 14 17 22 25 19 16 -6 17 -2
8 21 -3 9 -10 13 -15 10 -5 -3 -6 2 -3 11 4 10 14 15 25 12 14 -4 19 0 19 17
0 17 5 22 23 21 19 -1 22 -8 25 -50 3 -45 2 -47 -14 -34 -15 12 -16 11 -10
-16 8 -39 -15 -116 -44 -145 -14 -14 -19 -25 -12 -32 11 -11 -10 -91 -29 -114
-7 -9 -9 -28 -4 -51 4 -21 3 -35 -1 -30 -8 8 -44 -20 -44 -35 0 -5 10 -8 22
-6 11 2 23 -3 25 -9 3 -7 0 -13 -6 -13 -6 0 -11 -7 -11 -16 0 -11 -5 -14 -16
-10 -13 5 -16 0 -12 -29 3 -24 0 -35 -9 -35 -7 0 -13 5 -13 11 0 6 -7 3 -16
-5 -8 -9 -24 -16 -35 -16 -11 0 -18 -4 -14 -9 3 -5 -4 -12 -15 -16 -22 -7 -25
-17 -10 -46 12 -22 35 -26 26 -4 -3 8 -3 22 0 30 5 12 9 11 24 -3 9 -9 20 -27
24 -38 5 -18 2 -23 -20 -28 -20 -5 -25 -12 -21 -26 4 -15 0 -20 -14 -20 -23 0
-24 -18 -5 -46 13 -18 13 -21 -2 -21 -9 -1 -24 1 -32 3 -13 5 -13 6 0 14 12 8
9 10 -10 10 -37 -1 -66 -25 -51 -44 9 -11 5 -19 -20 -40 -26 -22 -29 -29 -18
-42 10 -12 10 -15 -1 -12 -8 2 -16 -6 -18 -17 -2 -11 -14 -30 -25 -43 -15 -16
-21 -34 -19 -55 2 -21 0 -27 -6 -19 -6 9 -13 0 -23 -30 -14 -45 -48 -88 -69
-88 -8 0 -10 -8 -6 -25 4 -14 2 -25 -4 -25 -5 0 -10 -7 -10 -15 0 -8 -4 -15
-10 -15 -5 0 -10 -7 -10 -16 0 -13 -2 -13 -17 2 -17 17 -18 17 -22 -2 -2 -10
-12 -29 -22 -42 -9 -13 -21 -36 -24 -53 -4 -17 -11 -26 -17 -23 -7 5 -9 -3 -6
-22 3 -16 2 -40 -1 -54 -6 -21 -12 -11 -34 58 -47 145 -44 159 84 420 189 386
212 443 248 628 31 157 38 186 76 309 18 61 36 123 40 138 4 22 10 27 23 22 9
-4 24 -8 32 -10z"/>
</g>
</svg>
